<?xml version="1.0" standalone="no"?><!-- Generator: Gravit.io --><svg xmlns="http://www.w3.org/2000/svg" xmlns:xlink="http://www.w3.org/1999/xlink" style="isolation:isolate" viewBox="0 0 560 315" width="560" height="315"><defs><clipPath id="_clipPath_UAqmutfjAovfI725c2H5D5me56LCmysM"><rect width="560" height="315"/></clipPath></defs><g clip-path="url(#_clipPath_UAqmutfjAovfI725c2H5D5me56LCmysM)"><rect x="121" y="6" width="302" height="302" transform="matrix(1,0,0,1,0,0)" fill="rgb(0,0,0)"/><g><path d=" M 271.969 33.687 L 272.833 33.687 C 283.794 34.173 291.353 41.354 299.668 48.913 C 341.458 86.869 391.833 163.97 407.922 228.005 C 410.514 238.156 413.429 248.522 407.652 257.701 C 401.929 266.88 391.131 270.659 379.954 272.495 C 349.718 277.408 311.222 279.892 272.833 280 L 271.16 280 C 232.771 279.892 194.22 277.408 163.985 272.441 C 152.808 270.659 142.064 266.88 136.287 257.701 C 130.564 248.522 133.479 238.156 136.017 228.005 C 152.106 163.97 202.481 86.869 244.325 48.913 C 252.586 41.354 260.199 34.173 271.16 33.687 L 271.969 33.687 Z " fill-rule="evenodd" fill="rgb(239,43,43)"/><clipPath id="_clipPath_IesvTggFRdxVM0t1btmZbYLxOvnV6Vgt"><path d=" M 271.969 33.687 L 272.833 33.687 C 283.794 34.173 291.353 41.354 299.668 48.913 C 341.458 86.869 391.833 163.97 407.922 228.005 C 410.514 238.156 413.429 248.522 407.652 257.701 C 401.929 266.88 391.131 270.659 379.954 272.495 C 349.718 277.408 311.222 279.892 272.833 280 L 271.16 280 C 232.771 279.892 194.22 277.408 163.985 272.441 C 152.808 270.659 142.064 266.88 136.287 257.701 C 130.564 248.522 133.479 238.156 136.017 228.005 C 152.106 163.97 202.481 86.869 244.325 48.913 C 252.586 41.354 260.199 34.173 271.16 33.687 L 271.969 33.687 Z " fill-rule="evenodd" fill="rgb(255,255,255)"/></clipPath><g clip-path="url(#_clipPath_IesvTggFRdxVM0t1btmZbYLxOvnV6Vgt)"><g><path d=" M 280.986 27.586 L 281.85 27.586 C 292.811 28.072 300.369 35.253 308.63 42.758 C 350.528 80.768 400.849 157.869 416.939 221.904 C 419.531 232.001 422.446 242.421 416.669 251.6 C 410.946 260.779 400.147 264.558 388.971 266.394 C 358.735 271.253 320.239 273.791 281.85 273.845 L 280.176 273.845 C 241.788 273.791 203.237 271.307 173.001 266.34 C 161.825 264.558 151.081 260.725 145.303 251.6 C 139.526 242.421 142.496 232.001 145.033 221.904 C 161.123 157.869 211.498 80.768 253.342 42.758 C 261.603 35.253 269.216 28.072 280.176 27.586 L 280.716 27.586 C 280.806 27.583 280.896 27.583 280.986 27.586 Z " fill-rule="evenodd" fill="rgb(241,74,80)"/><linearGradient id="_lgradient_0" x1="0.5786727879799666" y1="0.4767647058823528" x2="0.5786727879799666" y2="0.7126511764705883" gradientTransform="matrix(258.731,0,0,183.574,139.094,27.208)" gradientUnits="userSpaceOnUse"><stop offset="0%" stop-opacity="1" style="stop-color:rgb(123,83,193)"/><stop offset="100%" stop-opacity="0" style="stop-color:rgb(123,83,193)"/></linearGradient><path d=" M 139.094 208.946 C 139.094 208.946 277.153 97.884 380.062 210.782 L 397.826 167.588 C 385.569 109.546 356.252 62.033 309.062 27.208 L 221.757 40.49 C 178.023 50.586 144.008 66.406 147.517 104.417 L 139.094 208.946 Z " fill-rule="evenodd" fill="url(#_lgradient_0)"/></g></g><path d=" M 243.677 162.027 C 248.537 146.477 296.698 145.829 299.506 162.027 C 301.449 173.203 316.027 235.834 312.032 247.227 C 303.285 272.387 243.623 272.765 231.097 247.227 C 225.86 236.428 240.276 172.825 243.677 162.027 Z " fill-rule="evenodd" fill="rgb(46,13,25)"/><clipPath id="_clipPath_Cq8hOLItGooPnGl54cCXhSUmXCEcibRm"><path d=" M 243.677 162.027 C 248.537 146.477 296.698 145.829 299.506 162.027 C 301.449 173.203 316.027 235.834 312.032 247.227 C 303.285 272.387 243.623 272.765 231.097 247.227 C 225.86 236.428 240.276 172.825 243.677 162.027 Z " fill-rule="evenodd" fill="rgb(255,255,255)"/></clipPath><g clip-path="url(#_clipPath_Cq8hOLItGooPnGl54cCXhSUmXCEcibRm)"><g><ellipse vector-effect="non-scaling-stroke" cx="271.3755657054495" cy="257.1072417050495" rx="50.104904947439096" ry="42.16802884046331" fill="rgb(245,123,212)"/></g></g><path d=" M 245.729 162.945 C 244.65 166.428 243.731 169.959 242.976 173.527 C 238.968 190.304 235.743 207.258 233.311 224.334 C 232.773 228.926 232.413 233.536 232.231 238.156 C 232.198 240.232 232.324 242.308 232.609 244.365 C 232.739 245.091 232.957 245.798 233.257 246.471 L 233.797 247.551 C 236.439 251.877 240.26 255.36 244.811 257.593 C 249.053 259.941 253.648 261.582 258.417 262.452 C 271.175 265.148 284.442 264.06 296.59 259.321 C 297.884 258.722 299.146 258.055 300.369 257.323 C 303.985 255.288 306.973 252.3 309.008 248.684 C 309.542 247.598 309.958 246.458 310.25 245.283 L 310.466 243.501 L 310.466 238.642 C 310.358 236.266 310.142 233.945 309.926 231.623 C 309.602 228.923 309.278 226.17 308.846 223.416 C 307.96 217.242 306.952 211.085 305.823 204.951 C 304.473 197.77 303.069 190.535 301.557 183.354 L 298.318 167.858 C 297.91 165.862 297.514 163.865 297.13 161.865 C 296.803 160.706 296.191 159.647 295.348 158.787 C 294.192 157.586 292.818 156.615 291.299 155.926 C 289.453 154.991 287.492 154.301 285.468 153.874 C 277.657 152.149 269.58 152.002 261.711 153.442 C 258.298 154.118 254.981 155.206 251.83 156.681 C 250.347 157.501 248.969 158.498 247.727 159.651 C 246.906 160.485 246.263 161.477 245.837 162.567 C 245.837 162.783 245.837 162.783 245.729 162.945 Z  M 241.734 160.839 C 241.95 160.299 242.22 159.651 242.544 159.111 C 244.447 155.945 247.327 153.481 250.75 152.092 C 252.093 151.448 253.483 150.906 254.908 150.472 C 257.554 149.608 260.253 148.961 263.007 148.529 C 269.089 147.616 275.271 147.579 281.364 148.421 C 285.205 148.97 288.96 150.004 292.541 151.498 L 293.944 152.2 C 296.644 153.604 299.182 155.656 300.585 158.409 C 301.011 159.194 301.337 160.028 301.557 160.893 L 301.773 162.135 L 301.881 162.783 L 302.367 165.05 L 302.907 167.966 C 306.581 184.797 309.821 201.721 312.626 218.719 C 313.457 223.99 314.142 229.283 314.677 234.592 C 314.904 237.646 314.976 240.71 314.893 243.771 C 314.769 245.66 314.35 247.518 313.652 249.278 C 313.112 250.574 312.464 251.762 311.708 252.95 C 308.542 257.487 304.164 261.042 299.074 263.208 C 297.22 264.095 295.308 264.852 293.35 265.476 C 278.639 269.81 262.932 269.376 248.483 264.234 C 245.181 263.006 242.043 261.374 239.142 259.375 C 235.462 256.85 232.338 253.597 229.963 249.818 C 229.548 249.063 229.17 248.288 228.83 247.497 C 228.29 246.147 228.074 244.743 227.966 243.339 C 227.77 241.384 227.697 239.418 227.75 237.454 C 227.804 234.916 228.02 232.433 228.236 229.895 L 229.208 221.364 C 232.267 201.244 236.358 181.295 241.464 161.595 L 241.734 160.839 Z  M 224.888 98.046 L 224.888 98.1 L 224.942 101.015 L 222.998 103.121 L 205.019 111.328 L 202.157 111.436 L 200.106 109.438 L 199.998 106.523 L 201.941 104.363 L 219.975 96.156 L 222.782 96.102 L 224.888 98.046 Z  M 322.722 96.156 L 340.81 104.417 L 342.753 106.523 L 342.699 109.384 L 342.699 109.438 L 340.594 111.436 L 337.786 111.382 L 319.753 103.121 L 317.809 100.961 L 317.863 98.1 L 319.969 96.102 L 322.776 96.102 L 322.722 96.156 Z " fill="rgb(46,13,25)"/><path d=" M 210.634 127.634 C 221.649 125.906 231.691 131.953 233.095 141.078 C 234.445 150.256 226.616 159.057 215.601 160.785 C 204.587 162.513 194.544 156.465 193.141 147.341 C 191.791 138.162 199.62 129.361 210.634 127.634 Z " fill-rule="evenodd" fill="rgb(255,255,255)"/><path d=" M 210.688 129.955 C 207.818 130.49 205.073 131.552 202.589 133.087 C 199.396 135.112 196.98 138.156 195.732 141.726 C 195.043 144.072 195.061 146.57 195.786 148.907 C 196.185 150.089 196.768 151.2 197.514 152.2 C 199.816 155.306 203.178 157.458 206.963 158.247 C 213.027 159.639 219.398 158.361 224.456 154.738 C 227.547 152.546 229.765 149.334 230.719 145.667 C 231.096 143.846 231.059 141.964 230.611 140.16 C 230.265 138.85 229.699 137.609 228.938 136.488 C 228.02 135.139 226.778 133.951 225.482 132.979 C 223.782 131.771 221.881 130.875 219.867 130.333 C 217.054 129.562 214.11 129.397 211.228 129.847 L 210.688 129.901 L 210.688 129.955 Z  M 210.85 125.312 C 214.336 124.847 217.879 125.085 221.271 126.014 C 225.994 127.34 230.103 130.283 232.879 134.329 C 236.595 140.103 236.381 147.567 232.339 153.118 L 230.773 155.062 C 226.853 159.458 221.492 162.311 215.655 163.107 C 209.042 164.127 202.3 162.369 197.028 158.247 C 194.595 156.202 192.735 153.56 191.629 150.58 C 190.563 147.442 190.469 144.055 191.359 140.862 C 191.899 138.702 192.979 136.704 194.22 134.923 C 195.786 132.763 197.784 130.819 199.998 129.361 C 203.007 127.349 206.413 126.005 209.986 125.42 L 210.85 125.312 Z " fill="rgb(0,0,0)"/><path d=" M 333.359 127.634 C 322.344 125.906 312.302 131.953 310.898 141.078 C 309.548 150.256 317.377 159.057 328.391 160.785 C 339.406 162.513 349.449 156.465 350.798 147.341 C 352.202 138.162 344.319 129.361 333.359 127.634 Z " fill-rule="evenodd" fill="rgb(255,255,255)"/><path d=" M 329.795 125.042 C 331.955 125.042 334.115 125.366 336.166 125.906 C 341.845 127.326 346.826 130.736 350.204 135.516 C 351.886 138.13 352.905 141.113 353.174 144.209 C 353.536 149.624 351.215 154.872 346.965 158.247 C 341.904 162.372 335.33 164.158 328.877 163.161 C 322.33 162.369 316.356 159.034 312.248 153.874 C 310.101 150.976 308.81 147.534 308.522 143.939 C 308.368 140.213 309.471 136.543 311.654 133.519 C 313.76 130.549 316.783 128.335 320.077 126.932 C 322.981 125.7 326.101 125.058 329.255 125.042 L 329.795 125.042 Z  M 332.495 129.847 C 329.695 129.528 326.861 129.711 324.126 130.387 C 322.128 130.927 320.185 131.791 318.511 132.979 C 317.161 133.951 315.973 135.139 315.055 136.488 C 312.955 139.579 312.416 143.472 313.598 147.017 C 314.873 150.637 317.401 153.682 320.725 155.602 C 322.154 156.517 323.697 157.243 325.314 157.761 C 329.635 159.131 334.275 159.131 338.596 157.761 C 342.256 156.6 345.366 154.142 347.343 150.85 C 348.199 149.213 348.678 147.405 348.747 145.559 C 348.747 144.209 348.585 142.859 348.153 141.564 C 347.63 139.969 346.845 138.473 345.831 137.136 C 344.541 135.472 342.969 134.047 341.188 132.925 C 338.697 131.346 335.9 130.316 332.981 129.901 L 332.549 129.847 L 332.495 129.847 Z " fill="rgb(0,0,0)"/><path d=" M 359.707 99.18 C 359.707 99.18 350.096 110.248 350.096 115.053 C 350.096 120.361 354.399 124.664 359.707 124.664 C 365.015 124.664 369.318 120.361 369.318 115.053 C 369.318 110.248 359.707 99.18 359.707 99.18 Z " fill-rule="evenodd" fill="rgb(90,167,231)"/><path d=" M 365.43 113.812 C 367.536 115.107 367.86 118.131 366.186 120.453 C 364.566 122.774 361.489 123.638 359.383 122.342 C 357.277 121.047 356.953 118.023 358.627 115.701 C 360.247 113.38 363.325 112.516 365.43 113.812 Z " fill-rule="evenodd" fill="rgb(177,214,244)"/></g></g></svg>